<svg xmlns="http://www.w3.org/2000/svg" width="512" height="512" viewBox="0 0 512 512" fill="none">
  <rect width="512" height="512" rx="128" fill="#2563EB"/>
  <path d="M256 96C173.6 96 106 163.6 106 246C106 328.4 173.6 396 256 396C338.4 396 406 328.4 406 246C406 163.6 338.4 96 256 96ZM256 136C316.2 136 366 185.8 366 246C366 306.2 316.2 356 256 356C195.8 356 146 306.2 146 246C146 185.8 195.8 136 256 136Z" fill="white"/>
  <path d="M326 166L296 196L282 182L312 152L326 166Z" fill="white"/>
  <path d="M296 196L282 182L216 248V296H264L330 230L316 216L264 268H246V250L296 196Z" fill="white"/>
  <circle cx="186" cy="246" r="20" fill="white"/>
</svg> 