<svg xmlns="http://www.w3.org/2000/svg" width="64" height="64" viewBox="0 0 64 64" fill="none">
  <rect width="64" height="64" rx="16" fill="#2563EB"/>
  <path d="M32 12C22.4 12 14 20.4 14 30C14 39.6 22.4 48 32 48C41.6 48 50 39.6 50 30C50 20.4 41.6 12 32 12ZM32 18C38.6 18 44 23.4 44 30C44 36.6 38.6 42 32 42C25.4 42 20 36.6 20 30C20 23.4 25.4 18 32 18Z" fill="white"/>
  <path d="M42 22L38 26L36 24L40 20L42 22Z" fill="white"/>
  <path d="M38 26L36 24L28 32V38H34L42 30L40 28L34 34H32V32L38 26Z" fill="white"/>
  <circle cx="24" cy="30" r="3" fill="white"/>
</svg> 